<?xml version="1.0" encoding="UTF-8"?>
<svg width="383px" height="69px" viewBox="0 0 383 69" version="1.1" xmlns="http://www.w3.org/2000/svg" xmlns:xlink="http://www.w3.org/1999/xlink">
    <!-- Generator: Sketch 48.2 (47327) - http://www.bohemiancoding.com/sketch -->
    <title>logo_text</title>
    <desc>Created with Sketch.</desc>
    <defs></defs>
    <g id="Title" stroke="none" stroke-width="1" fill="none" fill-rule="evenodd" transform="translate(-325.000000, -943.000000)">
        <path d="M327.88,944.528 L334.876,944.528 C336.460008,944.528 337.296,945.363992 337.384,947.036 L337.648,951.26 C343.72003,946.067974 350.75996,943.472 358.768,943.472 C367.128042,943.472 372.759985,946.46397 375.664,952.448 C382.528034,946.46397 390.051959,943.472 398.236,943.472 C404.22003,943.472 408.839984,945.033984 412.096,948.158 C415.352016,951.282016 416.98,955.351975 416.98,960.368 L416.98,1007.36 C416.98,1009.12001 416.144008,1010 414.472,1010 L406.948,1010 C405.187991,1010 404.308,1009.12001 404.308,1007.36 L404.308,963.404 C404.308,957.595971 401.052033,954.692 394.54,954.692 C388.115968,954.692 382.352026,956.979977 377.248,961.556 C377.336,961.908002 377.38,962.479996 377.38,963.272 L377.38,1007.36 C377.38,1009.12001 376.588008,1010 375.004,1010 L367.348,1010 C365.675992,1010 364.84,1009.12001 364.84,1007.36 L364.84,963.404 C364.84,957.595971 361.584033,954.692 355.072,954.692 C348.911969,954.692 343.192026,956.935978 337.912,961.424 L337.912,1007.36 C337.912,1009.12001 337.120008,1010 335.536,1010 L327.88,1010 C326.207992,1010 325.372,1009.12001 325.372,1007.36 L325.372,947.036 C325.372,945.363992 326.207992,944.528 327.88,944.528 Z M515.904,961.556 L515.904,977.66 C515.904,979.244008 515.156007,980.036 513.66,980.036 L477.756,980.036 L477.756,992.18 C477.756,995.084015 478.701991,997.283993 480.594,998.78 C482.486009,1000.27601 485.939975,1001.024 490.956,1001.024 C495.972025,1001.024 499.425991,1000.27601 501.318,998.78 C503.210009,997.283993 504.156,995.084015 504.156,992.18 L504.156,990.728 C504.156,989.055992 504.991992,988.22 506.664,988.22 L513.396,988.22 C515.068008,988.22 515.904,989.055992 515.904,990.728 L515.904,992.972 C515.904,1005.02806 507.500084,1011.056 490.692,1011.056 C473.883916,1011.056 465.48,1005.02806 465.48,992.972 L465.48,961.556 C465.48,949.49994 473.971915,943.472 490.956,943.472 C507.588083,943.472 515.904,949.49994 515.904,961.556 Z M477.756,962.348 L477.756,970.664 L504.156,970.664 L504.156,962.348 C504.156,956.451971 499.756044,953.504 490.956,953.504 C482.155956,953.504 477.756,956.451971 477.756,962.348 Z M598.856,962.876 L598.856,959.708 C598.856,955.043977 594.676042,952.712 586.316,952.712 C578.131959,952.712 574.04,955.043977 574.04,959.708 L574.04,961.952 C574.04,964.768014 575.887982,966.791994 579.584,968.024 L599.384,974.888 C607.30404,977.616014 611.264,981.927971 611.264,987.824 L611.264,995.216 C611.264,999.704022 609.174021,1003.46598 604.994,1006.502 C600.813979,1009.53802 594.544042,1011.056 586.184,1011.056 C577.735958,1011.056 571.46602,1009.53802 567.374,1006.502 C563.28198,1003.46598 561.236,999.704022 561.236,995.216 L561.236,991.916 C561.236,990.331992 561.983993,989.54 563.48,989.54 L570.476,989.54 C571.972007,989.54 572.72,990.331992 572.72,991.916 L572.72,994.688 C572.72,999.352023 577.207955,1001.684 586.184,1001.684 C595.160045,1001.684 599.648,999.352023 599.648,994.688 L599.648,991.124 C599.648,988.483987 597.316023,986.372008 592.652,984.788 L572.852,977.924 C570.123986,976.955995 567.72601,975.262012 565.658,972.842 C563.58999,970.421988 562.556,967.672015 562.556,964.592 L562.556,959.708 C562.556,955.131977 564.469981,951.282016 568.298,948.158 C572.126019,945.033984 578.175959,943.472 586.448,943.472 C594.632041,943.472 600.659981,945.033984 604.532,948.158 C608.404019,951.282016 610.34,955.131977 610.34,959.708 L610.34,962.876 C610.34,964.460008 609.548008,965.252 607.964,965.252 L601.1,965.252 C599.603993,965.252 598.856,964.460008 598.856,962.876 Z M657.52,963.272 L657.52,961.292 C657.52,949.411941 665.835917,943.472 682.468,943.472 C699.100083,943.472 707.416,949.411941 707.416,961.292 L707.416,1007.36 C707.416,1009.12001 706.624008,1010 705.04,1010 L698.176,1010 C696.591992,1010 695.756,1009.12001 695.668,1007.36 L695.404,1003.532 C689.067968,1008.54803 682.116038,1011.056 674.548,1011.056 C668.651971,1011.056 664.076016,1009.53802 660.82,1006.502 C657.563984,1003.46598 655.936,999.660023 655.936,995.084 L655.936,988.748 C655.936,984.171977 657.519984,980.366015 660.688,977.33 C663.856016,974.293985 668.387971,972.776 674.284,972.776 L695.14,972.776 L695.14,962.612 C695.14,959.707985 694.194009,957.486008 692.302,955.946 C690.409991,954.405992 687.088024,953.636 682.336,953.636 C677.495976,953.636 674.10801,954.339993 672.172,955.748 C670.23599,957.156007 669.268,959.311985 669.268,962.216 L669.268,963.272 C669.268,965.032009 668.432008,965.912 666.76,965.912 L659.896,965.912 C658.311992,965.912 657.52,965.032009 657.52,963.272 Z M677.716,1000.628 C683.612029,1000.628 689.419971,998.384022 695.14,993.896 L695.14,982.544 L676.924,982.544 C673.755984,982.544 671.512007,983.203993 670.192,984.524 C668.871993,985.844007 668.212,987.867986 668.212,990.596 L668.212,993.236 C668.212,998.164025 671.379968,1000.628 677.716,1000.628 Z" id="logo_text" fill="#FFFFFF"></path>
    </g>
</svg>